<svg width="1em" height="1em" viewBox="0 0 50 50" fill="none" xmlns="http://www.w3.org/2000/svg">
  <!-- Phone Handset -->
  <path d="M12 35C10.75 35 9.5 34.75 8.5 34.25C7.5 33.75 6.75 33 6.25 32C5.75 31 5.5 29.75 5.5 28.5C5.5 27.25 5.75 26 6.25 25C6.75 24 7.5 23.25 8.5 22.75C9.5 22.25 10.75 22 12 22H38C39.25 22 40.5 22.25 41.5 22.75C42.5 23.25 43.25 24 43.75 25C44.25 26 44.5 27.25 44.5 28.5C44.5 29.75 44.25 31 43.75 32C43.25 33 42.5 33.75 41.5 34.25C40.5 34.75 39.25 35 38 35H12Z" fill="black"/>
  
  <!-- Outgoing Arrow -->
  <path d="M30 10L40 20L35 20L35 25L40 25L30 35L35 30L35 36L40 36L28 24" fill="black"/>
</svg>
